<svg width="202" height="925" viewBox="0 0 202 925" fill="none" xmlns="http://www.w3.org/2000/svg">
<g opacity="0.7" filter="url(#filter0_f_7_36)">
<rect x="60.9851" y="60.1181" width="81.0149" height="804.005" rx="24" fill="#0C0B0B"/>
</g>
<rect x="10" y="11" width="132" height="851.999" rx="24" fill="#0C0B0B"/>
<path d="M67.2887 78.2236C65.4114 77.5836 63.7047 76.9436 62.1687 76.3036C60.6327 75.6209 59.3101 74.8102 58.2007 73.8716C57.0914 72.9329 56.2167 71.8236 55.5767 70.5436C54.9794 69.2209 54.6807 67.6209 54.6807 65.7436C54.6807 62.1169 56.0674 59.2156 58.8407 57.0396C61.6567 54.8636 65.5821 53.7756 70.6167 53.7756C72.4514 53.7756 74.1581 53.9036 75.7367 54.1595C77.3154 54.4156 78.6594 54.8209 79.7687 55.3755C80.9207 55.8876 81.8167 56.5702 82.4567 57.4235C83.0967 58.2342 83.4167 59.1942 83.4167 60.3036C83.4167 61.4129 83.1607 62.3729 82.6487 63.1836C82.1367 63.9516 81.5181 64.6129 80.7927 65.1676C79.8541 64.5702 78.5954 64.0582 77.0167 63.6316C75.4381 63.1622 73.7101 62.9276 71.8327 62.9276C69.9127 62.9276 68.5047 63.2049 67.6087 63.7596C66.7127 64.2716 66.2647 64.9329 66.2647 65.7436C66.2647 66.3836 66.5421 66.9169 67.0967 67.3436C67.6514 67.7276 68.4834 68.0902 69.5927 68.4316L72.9847 69.5196C76.9954 70.7996 80.0674 72.4422 82.2007 74.4476C84.3767 76.4102 85.4647 79.0982 85.4647 82.5116C85.4647 86.1382 84.0354 89.0822 81.1767 91.3436C78.3181 93.5622 74.1154 94.6716 68.5687 94.6716C66.6061 94.6716 64.7714 94.5009 63.0647 94.1596C61.4007 93.8609 59.9287 93.4129 58.6487 92.8156C57.4114 92.1756 56.4301 91.4076 55.7047 90.5116C55.0221 89.5729 54.6807 88.5062 54.6807 87.3116C54.6807 86.0742 55.0434 85.0289 55.7687 84.1756C56.4941 83.2796 57.2834 82.5969 58.1367 82.1276C59.3314 83.0662 60.7821 83.8769 62.4887 84.5596C64.2381 85.2422 66.1367 85.5836 68.1847 85.5836C70.2754 85.5836 71.7474 85.2636 72.6007 84.6236C73.4541 83.9836 73.8807 83.2369 73.8807 82.3836C73.8807 81.5302 73.5394 80.8902 72.8567 80.4636C72.1741 79.9942 71.2141 79.5462 69.9767 79.1196L67.2887 78.2236ZM88.7787 88.4636C88.7787 86.6716 89.3334 85.1782 90.4427 83.9836C91.5521 82.7889 93.0667 82.1916 94.9867 82.1916C96.9067 82.1916 98.4214 82.7889 99.5307 83.9836C100.64 85.1782 101.195 86.6716 101.195 88.4636C101.195 90.2556 100.64 91.7489 99.5307 92.9436C98.4214 94.1382 96.9067 94.7356 94.9867 94.7356C93.0667 94.7356 91.5521 94.1382 90.4427 92.9436C89.3334 91.7489 88.7787 90.2556 88.7787 88.4636Z" fill="#F1D5BB"/>
<path d="M90.9255 192.398L90.9228 192.395L74.6043 176.079C73.9087 175.383 72.9839 175 72.0002 175C71.0166 175 70.0918 175.383 69.3959 176.079L53.086 192.387C53.0805 192.392 53.075 192.398 53.0695 192.404C51.6411 193.84 51.6436 196.171 53.0765 197.603C53.7312 198.258 54.5958 198.638 55.5203 198.677C55.5578 198.681 55.5957 198.683 55.6338 198.683H56.2842V210.691C56.2842 213.067 58.2177 215 60.5947 215H66.979C67.626 215 68.151 214.475 68.151 213.828V204.414C68.151 203.33 69.033 202.448 70.1174 202.448H73.8831C74.9675 202.448 75.8495 203.33 75.8495 204.414V213.828C75.8495 214.475 76.3742 215 77.0215 215H83.4058C85.7828 215 87.7163 213.067 87.7163 210.691V198.683H88.3194C89.3027 198.683 90.2275 198.3 90.9237 197.604C92.3582 196.169 92.3588 193.834 90.9255 192.398Z" fill="white"/>
<path d="M80.2044 788.625V791.75C80.2044 795.196 77.4006 798 73.9541 798H58.2503C54.8038 798 52 795.196 52 791.75V764.25C52 760.804 54.8038 758 58.2503 758H73.9541C77.4006 758 80.2044 760.804 80.2044 764.25V767.375C80.2044 768.238 79.5049 768.938 78.6418 768.938C77.7787 768.938 77.0792 768.238 77.0792 767.375V764.25C77.0792 762.527 75.6772 761.125 73.9541 761.125H58.2503C56.5272 761.125 55.1251 762.527 55.1251 764.25V791.75C55.1251 793.473 56.5272 794.875 58.2503 794.875H73.9541C75.6772 794.875 77.0792 793.473 77.0792 791.75V788.625C77.0792 787.762 77.7787 787.062 78.6418 787.062C79.5049 787.062 80.2044 787.762 80.2044 788.625ZM90.8576 775.316L87.3586 771.817C86.7482 771.207 85.7588 771.207 85.1487 771.817C84.5384 772.427 84.5384 773.417 85.1487 774.027L87.6376 776.516H68.8757C68.0127 776.516 67.3132 777.215 67.3132 778.078C67.3132 778.941 68.0127 779.641 68.8757 779.641H87.6376L85.1487 782.13C84.5384 782.74 84.5384 783.729 85.1487 784.339C85.4539 784.644 85.8537 784.797 86.2535 784.797C86.6536 784.797 87.0534 784.644 87.3586 784.339L90.8576 780.84C92.3808 779.317 92.3808 776.839 90.8576 775.316Z" fill="white"/>
<path fill-rule="evenodd" clip-rule="evenodd" d="M84.5879 483.94C83.9081 485.18 82.5886 486 81.0892 486H66.1947L63.9955 490H87.9866V494H63.9955C60.9567 494 59.0374 490.74 60.4968 488.06L63.1958 483.18L55.9985 468H52V464H58.5376L60.4169 468H90.0059C91.5253 468 92.485 469.64 91.7452 470.96L84.5879 483.94ZM86.6071 472H62.3161L67.0543 482H81.0891L86.6071 472ZM63.9956 496C61.7964 496 60.0171 497.8 60.0171 500C60.0171 502.2 61.7964 504 63.9956 504C66.1948 504 67.9941 502.2 67.9941 500C67.9941 497.8 66.1948 496 63.9956 496ZM80.0096 500C80.0096 497.8 81.7889 496 83.9881 496C86.1873 496 87.9866 497.8 87.9866 500C87.9866 502.2 86.1873 504 83.9881 504C81.7889 504 80.0096 502.2 80.0096 500Z" fill="white"/>
<path fill-rule="evenodd" clip-rule="evenodd" d="M71.5 617C61.825 617 54 623.26 54 631C54 641.5 71.5 657 71.5 657C71.5 657 89 641.5 89 631C89 623.26 81.175 617 71.5 617ZM58.9999 631C58.9999 625.48 64.5999 621 71.4999 621C78.3999 621 83.9999 625.48 83.9999 631C83.9999 636.76 76.7999 645.38 71.4999 650.76C66.2999 645.42 58.9999 636.7 58.9999 631ZM65.2501 631C65.2501 628.239 68.0483 626 71.5001 626C73.733 626 75.7963 626.953 76.9127 628.5C78.0292 630.047 78.0292 631.953 76.9127 633.5C75.7963 635.047 73.733 636 71.5001 636C68.0483 636 65.2501 633.761 65.2501 631Z" fill="white"/>
<rect x="9" y="270" width="134" height="122" fill="#F1D5BB"/>
<path fill-rule="evenodd" clip-rule="evenodd" d="M88.4208 326.458C85.0946 329.961 80.5969 331.062 77.3962 329.498L74.321 332.737L88.7136 347.894L85.764 351L71.3714 335.843L56.9578 350.978L54.0082 347.872L74.4256 326.37C72.9403 322.999 73.9863 318.263 77.3125 314.76C81.329 310.552 87.061 309.759 90.1152 312.975C93.1904 316.214 92.4164 322.25 88.4208 326.458ZM69.1331 327.251L63.2128 333.486L54.4476 324.277C51.1841 320.818 51.1841 315.245 54.4476 311.808L69.1331 327.251Z" fill="black"/>
<defs>
<filter id="filter0_f_7_36" x="0.985107" y="0.118103" width="201.015" height="924.005" filterUnits="userSpaceOnUse" color-interpolation-filters="sRGB">
<feFlood flood-opacity="0" result="BackgroundImageFix"/>
<feBlend mode="normal" in="SourceGraphic" in2="BackgroundImageFix" result="shape"/>
<feGaussianBlur stdDeviation="30" result="effect1_foregroundBlur_7_36"/>
</filter>
</defs>
</svg>
